<?xml version="1.0" encoding="UTF-8" standalone="no"?>
<!DOCTYPE svg PUBLIC "-//W3C//DTD SVG 1.1//EN"
 "http://www.w3.org/Graphics/SVG/1.1/DTD/svg11.dtd">
<!-- Generated by graphviz version 2.43.0 (0)
 -->
<!-- Title: Component_Diagram Pages: 1 -->
<svg width="886pt" height="656pt"
 viewBox="0.00 0.00 886.00 656.00" xmlns="http://www.w3.org/2000/svg" xmlns:xlink="http://www.w3.org/1999/xlink">
<g id="graph0" class="graph" transform="scale(1 1) rotate(0) translate(4 652)">
<title>Component_Diagram</title>
<polygon fill="white" stroke="transparent" points="-4,4 -4,-652 882,-652 882,4 -4,4"/>
<g id="clust1" class="cluster">
<title>cluster_external</title>
<polygon fill="none" stroke="gray" stroke-dasharray="5,2" points="449,-8 449,-224 718,-224 718,-8 449,-8"/>
<text text-anchor="middle" x="583.5" y="-208.8" font-family="Times,serif" font-size="14.00">External Environment</text>
</g>
<g id="clust2" class="cluster">
<title>cluster_server</title>
<polygon fill="#f5f5f5" stroke="black" points="8,-8 8,-640 439,-640 439,-8 8,-8"/>
<text text-anchor="middle" x="223.5" y="-624.8" font-family="Times,serif" font-size="14.00">HTTP Server Application (C++)</text>
</g>
<g id="clust3" class="cluster">
<title>cluster_handler</title>
<polygon fill="#e0ffff" stroke="#666666" points="16,-270 16,-486 283,-486 283,-270 16,-270"/>
<text text-anchor="middle" x="149.5" y="-470.8" font-family="Times,serif" font-size="14.00">Thread: Client Handler</text>
</g>
<!-- Client -->
<g id="node1" class="node">
<title>Client</title>
<polygon fill="#d3d3d3" stroke="black" points="710.5,-170 617.5,-170 613.5,-166 613.5,-134 706.5,-134 710.5,-138 710.5,-170"/>
<polyline fill="none" stroke="black" points="706.5,-166 613.5,-166 "/>
<polyline fill="none" stroke="black" points="706.5,-166 706.5,-134 "/>
<polyline fill="none" stroke="black" points="706.5,-166 710.5,-170 "/>
<text text-anchor="middle" x="662" y="-155.2" font-family="Arial" font-size="11.00">HTTP Client</text>
<text text-anchor="middle" x="662" y="-143.2" font-family="Arial" font-size="11.00">(Browser/Tester)</text>
</g>
<!-- OS_Sock -->
<g id="node3" class="node">
<title>OS_Sock</title>
<polygon fill="#d3d3d3" stroke="black" points="687.5,-52 626.5,-52 626.5,-16 693.5,-16 693.5,-46 687.5,-52"/>
<polyline fill="none" stroke="black" points="687.5,-52 687.5,-46 "/>
<polyline fill="none" stroke="black" points="693.5,-46 687.5,-46 "/>
<text text-anchor="middle" x="660" y="-37.2" font-family="Arial" font-size="11.00">OS Kernel</text>
<text text-anchor="middle" x="660" y="-25.2" font-family="Arial" font-size="11.00">(Sockets)</text>
</g>
<!-- Client&#45;&gt;OS_Sock -->
<g id="edge10" class="edge">
<title>Client&#45;&gt;OS_Sock</title>
<path fill="none" stroke="gray" stroke-dasharray="1,5" d="M661.7,-133.88C661.38,-115.04 660.85,-84.47 660.47,-62.3"/>
<polygon fill="gray" stroke="gray" points="663.97,-62.12 660.3,-52.19 656.97,-62.25 663.97,-62.12"/>
<text text-anchor="middle" x="686" y="-90.8" font-family="Arial" font-size="9.00">TCP Stream</text>
</g>
<!-- ConnMgr -->
<g id="node4" class="node">
<title>ConnMgr</title>
<polygon fill="#add8e6" stroke="black" points="430.5,-586 313.5,-586 313.5,-582 309.5,-582 309.5,-578 313.5,-578 313.5,-558 309.5,-558 309.5,-554 313.5,-554 313.5,-550 430.5,-550 430.5,-586"/>
<polyline fill="none" stroke="black" points="313.5,-582 317.5,-582 317.5,-578 313.5,-578 "/>
<polyline fill="none" stroke="black" points="313.5,-558 317.5,-558 317.5,-554 313.5,-554 "/>
<text text-anchor="middle" x="372" y="-571.2" font-family="Arial" font-size="11.00">Connection Manager</text>
<text text-anchor="middle" x="372" y="-559.2" font-family="Arial" font-size="11.00">(main thread)</text>
</g>
<!-- Client&#45;&gt;ConnMgr -->
<g id="edge9" class="edge">
<title>Client&#45;&gt;ConnMgr</title>
<path fill="none" stroke="blue" stroke-width="2" d="M649.83,-170.37C604.33,-235.34 444.03,-464.17 389.96,-541.36"/>
<polygon fill="blue" stroke="blue" stroke-width="2" points="386.78,-539.8 383.91,-550 392.51,-543.82 386.78,-539.8"/>
<text text-anchor="middle" x="550.5" y="-352.8" font-family="Arial" font-size="9.00">TCP Connect</text>
</g>
<!-- OS_FS -->
<g id="node2" class="node">
<title>OS_FS</title>
<polygon fill="#d3d3d3" stroke="black" points="555,-170 552,-174 531,-174 528,-170 457,-170 457,-134 555,-134 555,-170"/>
<text text-anchor="middle" x="506" y="-149.2" font-family="Arial" font-size="11.00">Host File System</text>
</g>
<!-- ConnMgr&#45;&gt;OS_Sock -->
<g id="edge12" class="edge">
<title>ConnMgr&#45;&gt;OS_Sock</title>
<path fill="none" stroke="gray" d="M430.92,-558.64C548.06,-540.37 799,-492.21 799,-415 799,-415 799,-415 799,-151 799,-100.37 743.96,-67.53 703.15,-50.13"/>
<polygon fill="gray" stroke="gray" points="704.23,-46.79 693.65,-46.25 701.58,-53.27 704.23,-46.79"/>
<text text-anchor="middle" x="838.5" y="-293.8" font-family="Arial" font-size="9.00">syscall: socket/bind</text>
</g>
<!-- Processor -->
<g id="node5" class="node">
<title>Processor</title>
<polygon fill="#ffffe0" stroke="black" points="275,-432 165,-432 165,-428 161,-428 161,-424 165,-424 165,-404 161,-404 161,-400 165,-400 165,-396 275,-396 275,-432"/>
<polyline fill="none" stroke="black" points="165,-428 169,-428 169,-424 165,-424 "/>
<polyline fill="none" stroke="black" points="165,-404 169,-404 169,-400 165,-400 "/>
<text text-anchor="middle" x="220" y="-417.2" font-family="Arial" font-size="11.00">Request Processor</text>
<text text-anchor="middle" x="220" y="-405.2" font-family="Arial" font-size="11.00">(handle_client loop)</text>
</g>
<!-- ConnMgr&#45;&gt;Processor -->
<g id="edge1" class="edge">
<title>ConnMgr&#45;&gt;Processor</title>
<path fill="none" stroke="#333333" d="M354.86,-549.86C327.95,-522.95 275.66,-470.66 244.7,-439.7"/>
<polygon fill="#333333" stroke="#333333" points="246.86,-436.91 237.31,-432.31 241.91,-441.86 246.86,-436.91"/>
<text text-anchor="middle" x="340.5" y="-506.8" font-family="Arial" font-size="9.00">spawns</text>
<text text-anchor="middle" x="340.5" y="-496.8" font-family="Arial" font-size="9.00">std::thread</text>
</g>
<!-- Parser -->
<g id="node6" class="node">
<title>Parser</title>
<polygon fill="#ffffe0" stroke="black" points="112.5,-314 23.5,-314 23.5,-310 19.5,-310 19.5,-306 23.5,-306 23.5,-286 19.5,-286 19.5,-282 23.5,-282 23.5,-278 112.5,-278 112.5,-314"/>
<polyline fill="none" stroke="black" points="23.5,-310 27.5,-310 27.5,-306 23.5,-306 "/>
<polyline fill="none" stroke="black" points="23.5,-286 27.5,-286 27.5,-282 23.5,-282 "/>
<text text-anchor="middle" x="68" y="-299.2" font-family="Arial" font-size="11.00">HTTP Request</text>
<text text-anchor="middle" x="68" y="-287.2" font-family="Arial" font-size="11.00">Parser</text>
</g>
<!-- Processor&#45;&gt;Parser -->
<g id="edge2" class="edge">
<title>Processor&#45;&gt;Parser</title>
<path fill="none" stroke="#333333" stroke-dasharray="5,2" d="M178.36,-395.85C159.17,-386.81 136.76,-374.56 119,-360 105.91,-349.27 93.87,-334.72 84.77,-322.31"/>
<polygon fill="#333333" stroke="#333333" points="78.97,-314.13 88.43,-319.68 81.87,-318.21 84.76,-322.28 84.76,-322.28 84.76,-322.28 81.87,-318.21 81.09,-324.89 78.97,-314.13 78.97,-314.13"/>
<text text-anchor="middle" x="151" y="-352.8" font-family="Arial" font-size="9.00">IRequestParser</text>
</g>
<!-- Router -->
<g id="node7" class="node">
<title>Router</title>
<polygon fill="#ffffe0" stroke="black" points="275,-314 171,-314 171,-310 167,-310 167,-306 171,-306 171,-286 167,-286 167,-282 171,-282 171,-278 275,-278 275,-314"/>
<polyline fill="none" stroke="black" points="171,-310 175,-310 175,-306 171,-306 "/>
<polyline fill="none" stroke="black" points="171,-286 175,-286 175,-282 171,-282 "/>
<text text-anchor="middle" x="223" y="-299.2" font-family="Arial" font-size="11.00">Endpoint Router</text>
<text text-anchor="middle" x="223" y="-287.2" font-family="Arial" font-size="11.00">(GET/POST logic)</text>
</g>
<!-- Processor&#45;&gt;Router -->
<g id="edge3" class="edge">
<title>Processor&#45;&gt;Router</title>
<path fill="none" stroke="#333333" d="M208,-395.96C200.64,-383.48 193.29,-365.99 197,-350 199.1,-340.96 202.97,-331.68 207.09,-323.47"/>
<polygon fill="#333333" stroke="#333333" points="210.31,-324.86 211.95,-314.39 204.14,-321.55 210.31,-324.86"/>
<text text-anchor="middle" x="214.5" y="-352.8" font-family="Arial" font-size="9.00">dispatch</text>
</g>
<!-- NetIO -->
<g id="node8" class="node">
<title>NetIO</title>
<polygon fill="#ffb6c1" stroke="black" points="399,-170 325,-170 325,-166 321,-166 321,-162 325,-162 325,-142 321,-142 321,-138 325,-138 325,-134 399,-134 399,-170"/>
<polyline fill="none" stroke="black" points="325,-166 329,-166 329,-162 325,-162 "/>
<polyline fill="none" stroke="black" points="325,-142 329,-142 329,-138 325,-138 "/>
<text text-anchor="middle" x="362" y="-155.2" font-family="Arial" font-size="11.00">Network I/O</text>
<text text-anchor="middle" x="362" y="-143.2" font-family="Arial" font-size="11.00">Wrapper</text>
</g>
<!-- Processor&#45;&gt;NetIO -->
<g id="edge4" class="edge">
<title>Processor&#45;&gt;NetIO</title>
<path fill="none" stroke="#333333" stroke-dasharray="5,2" d="M242.53,-395.79C276.95,-367.93 341.21,-309.21 366,-242 373.34,-222.11 371.67,-198 368.54,-179.89"/>
<polygon fill="#333333" stroke="#333333" points="366.58,-170 372.94,-178.94 367.55,-174.91 368.52,-179.81 368.52,-179.81 368.52,-179.81 367.55,-174.91 364.11,-180.68 366.58,-170 366.58,-170"/>
<text text-anchor="middle" x="372" y="-293.8" font-family="Arial" font-size="9.00">send/recv</text>
</g>
<!-- Router&#45;&gt;NetIO -->
<g id="edge7" class="edge">
<title>Router&#45;&gt;NetIO</title>
<path fill="none" stroke="#333333" stroke-dasharray="5,2" d="M242.75,-277.77C254.17,-267.61 268.67,-254.36 281,-242 301.86,-221.1 324.38,-196.14 340.37,-177.99"/>
<polygon fill="#333333" stroke="#333333" points="347.22,-170.16 344.02,-180.65 343.93,-173.92 340.63,-177.68 340.63,-177.68 340.63,-177.68 343.93,-173.92 337.25,-174.72 347.22,-170.16 347.22,-170.16"/>
<text text-anchor="middle" x="321.5" y="-234.8" font-family="Arial" font-size="9.00">send response</text>
</g>
<!-- FileIO -->
<g id="node9" class="node">
<title>FileIO</title>
<polygon fill="#ffb6c1" stroke="black" points="89.5,-170 16.5,-170 16.5,-166 12.5,-166 12.5,-162 16.5,-162 16.5,-142 12.5,-142 12.5,-138 16.5,-138 16.5,-134 89.5,-134 89.5,-170"/>
<polyline fill="none" stroke="black" points="16.5,-166 20.5,-166 20.5,-162 16.5,-162 "/>
<polyline fill="none" stroke="black" points="16.5,-142 20.5,-142 20.5,-138 16.5,-138 "/>
<text text-anchor="middle" x="53" y="-155.2" font-family="Arial" font-size="11.00">File System</text>
<text text-anchor="middle" x="53" y="-143.2" font-family="Arial" font-size="11.00">Adapter</text>
</g>
<!-- Router&#45;&gt;FileIO -->
<g id="edge6" class="edge">
<title>Router&#45;&gt;FileIO</title>
<path fill="none" stroke="#333333" stroke-dasharray="5,2" d="M173.17,-277.98C152.72,-269.36 129.73,-257.41 112,-242 91.8,-224.44 75.62,-198.38 65.35,-178.99"/>
<polygon fill="#333333" stroke="#333333" points="60.79,-170.08 69.35,-176.93 63.06,-174.53 65.34,-178.98 65.34,-178.98 65.34,-178.98 63.06,-174.53 61.33,-181.03 60.79,-170.08 60.79,-170.08"/>
<text text-anchor="middle" x="136" y="-234.8" font-family="Arial" font-size="9.00">IFileSystem</text>
</g>
<!-- Compressor -->
<g id="node10" class="node">
<title>Compressor</title>
<polygon fill="#ffb6c1" stroke="black" points="266.5,-170 147.5,-170 147.5,-166 143.5,-166 143.5,-162 147.5,-162 147.5,-142 143.5,-142 143.5,-138 147.5,-138 147.5,-134 266.5,-134 266.5,-170"/>
<polyline fill="none" stroke="black" points="147.5,-166 151.5,-166 151.5,-162 147.5,-162 "/>
<polyline fill="none" stroke="black" points="147.5,-142 151.5,-142 151.5,-138 147.5,-138 "/>
<text text-anchor="middle" x="207" y="-155.2" font-family="Arial" font-size="11.00">Compression Service</text>
<text text-anchor="middle" x="207" y="-143.2" font-family="Arial" font-size="11.00">(GZIP)</text>
</g>
<!-- Router&#45;&gt;Compressor -->
<g id="edge5" class="edge">
<title>Router&#45;&gt;Compressor</title>
<path fill="none" stroke="#333333" stroke-dasharray="5,2" d="M201.73,-277.7C191.89,-268.31 181.24,-255.8 176,-242 167.99,-220.9 177.62,-196.69 188.2,-178.86"/>
<polygon fill="#333333" stroke="#333333" points="193.73,-170.16 192.16,-181.02 191.04,-174.38 188.36,-178.6 188.36,-178.6 188.36,-178.6 191.04,-174.38 184.56,-176.19 193.73,-170.16 193.73,-170.16"/>
<text text-anchor="middle" x="205" y="-234.8" font-family="Arial" font-size="9.00">ICompression</text>
</g>
<!-- NetIO&#45;&gt;OS_Sock -->
<g id="edge11" class="edge">
<title>NetIO&#45;&gt;OS_Sock</title>
<path fill="none" stroke="gray" d="M399.14,-136.54C454.42,-115.03 558.09,-74.67 616.72,-51.85"/>
<polygon fill="gray" stroke="gray" points="618.03,-55.09 626.08,-48.2 615.49,-48.57 618.03,-55.09"/>
<text text-anchor="middle" x="555.5" y="-90.8" font-family="Arial" font-size="9.00">syscall: send/recv</text>
</g>
<!-- FileIO&#45;&gt;OS_FS -->
<g id="edge13" class="edge">
<title>FileIO&#45;&gt;OS_FS</title>
<path fill="none" stroke="gray" d="M64.35,-170.17C75.67,-186.42 94.72,-209.15 118,-219 152.28,-233.5 419.5,-235.22 453,-219 470.25,-210.65 483.58,-193.67 492.56,-178.89"/>
<polygon fill="gray" stroke="gray" points="495.68,-180.49 497.59,-170.07 489.6,-177.02 495.68,-180.49"/>
<text text-anchor="middle" x="264" y="-234.8" font-family="Arial" font-size="9.00">fstream</text>
</g>
<!-- LibZ -->
<g id="node11" class="node">
<title>LibZ</title>
<polygon fill="#d8bfd8" stroke="black" points="245.5,-52 168.5,-52 168.5,-16 245.5,-16 245.5,-52"/>
<text text-anchor="middle" x="207" y="-37.2" font-family="Arial" font-size="11.00">zlib Library</text>
<text text-anchor="middle" x="207" y="-25.2" font-family="Arial" font-size="11.00">(Shared Lib)</text>
</g>
<!-- Compressor&#45;&gt;LibZ -->
<g id="edge8" class="edge">
<title>Compressor&#45;&gt;LibZ</title>
<path fill="none" stroke="#333333" d="M207,-133.88C207,-115.04 207,-84.47 207,-62.3"/>
<polygon fill="#333333" stroke="#333333" points="210.5,-62.19 207,-52.19 203.5,-62.19 210.5,-62.19"/>
<text text-anchor="middle" x="230" y="-90.8" font-family="Arial" font-size="9.00">deflateInit2</text>
</g>
</g>
</svg>
